# xmcd
# 
# Track frame offsets:
#     150
#     43275
#     54404
#     66318
# 
# Disc length: 1304
# 
# Revision: 2
# Processed by: cddbd v1.5.2PL0 Copyright (c) Steve Scherf et al.
# Submitted via: fre:ac v1.0.17
# 
DISCID=37051604
DTITLE=Funeral Sutra - Meditations
DYEAR=2014
DGENRE=
TTITLE0=Emptiness Sutra
TTITLE1=Hope Sutra
TTITLE2=Time Sutra
TTITLE3=Death Sutra
EXTD=
EXTT0=
EXTT1=
EXTT2=
EXTT3=
PLAYORDER=
